{
  "header": {
    "PPQ": 960,
    "bpm": 110.00011000011,
    "timeSignature": [
      4,
      4
    ],
    "name": "Drum Machine"
  },
  "startTime": 0,
  "duration": 8.18181,
  "tracks": [
    {
      "startTime": 0,
      "duration": 8.18181,
      "length": 21,
      "notes": [
        {
          "name": "A5",
          "midi": 93,
          "time": 0,
          "velocity": 0.7874015748031497,
          "duration": 1.636362
        },
        {
          "name": "D5",
          "midi": 86,
          "time": 0,
          "velocity": 0.7874015748031497,
          "duration": 1.636362
        },
        {
          "name": "G4",
          "midi": 79,
          "time": 0,
          "velocity": 0.7874015748031497,
          "duration": 1.636362
        },
        {
          "name": "B3",
          "midi": 71,
          "time": 0,
          "velocity": 0.7874015748031497,
          "duration": 1.636362
        },
        {
          "name": "E3",
          "midi": 64,
          "time": 0,
          "velocity": 0.7874015748031497,
          "duration": 1.636362
        },
        {
          "name": "A5",
          "midi": 93,
          "time": "1:0",
          "velocity": 0.7874015748031497,
          "duration": 1.636362
        },
        {
          "name": "E5",
          "midi": 88,
          "time": "1:0",
          "velocity": 0.7874015748031497,
          "duration": 1.636362
        },
        {
          "name": "F#4",
          "midi": 78,
          "time": "1:0",
          "velocity": 0.7874015748031497,
          "duration": 1.636362
        },
        {
          "name": "B3",
          "midi": 71,
          "time": "1:0",
          "velocity": 0.7874015748031497,
          "duration": 1.636362
        },
        {
          "name": "D3",
          "midi": 62,
          "time": "1:0",
          "velocity": 0.7874015748031497,
          "duration": 1.636362
        },
        {
          "name": "A5",
          "midi": 93,
          "time": "2:0",
          "velocity": 0.7874015748031497,
          "duration": 1.636362
        },
        {
          "name": "E5",
          "midi": 88,
          "time": "2:0",
          "velocity": 0.7874015748031497,
          "duration": 1.636362
        },
        {
          "name": "F#4",
          "midi": 78,
          "time": "2:0",
          "velocity": 0.7874015748031497,
          "duration": 1.636362
        },
        {
          "name": "D4",
          "midi": 74,
          "time": "2:0",
          "velocity": 0.7874015748031497,
          "duration": 1.636362
        },
        {
          "name": "C4",
          "midi": 73,
          "time": "2:0",
          "velocity": 0.7874015748031497,
          "duration": 1.636362
        },
        {
          "name": "B2",
          "midi": 59,
          "time": "2:0",
          "velocity": 0.7874015748031497,
          "duration": 1.636362
        },
        {
          "name": "G5",
          "midi": 91,
          "time": "3:0",
          "velocity": 0.7874015748031497,
          "duration": 1.636362
        },
        {
          "name": "E5",
          "midi": 88,
          "time": "3:0",
          "velocity": 0.7874015748031497,
          "duration": 1.636362
        },
        {
          "name": "G4",
          "midi": 79,
          "time": "3:0",
          "velocity": 0.7874015748031497,
          "duration": 1.636362
        },
        {
          "name": "D4",
          "midi": 74,
          "time": "3:0",
          "velocity": 0.7874015748031497,
          "duration": 1.636362
        },
        {
          "name": "C3",
          "midi": 60,
          "time": "3:0",
          "velocity": 0.7874015748031497,
          "duration": 1.636362
        }
      ],
      "controlChanges": {},
      "id": 1,
      "name": "Organ",
      "channelNumber": 1,
      "isPercussion": false
    }
  ]
}
